<svg id="Layer_1" height="512" viewBox="0 0 128 128" width="512" xmlns="http://www.w3.org/2000/svg" data-name="Layer 1"><path d="m111.5 71.925v19.2h-82.02a9.6 9.6 0 1 1 0-19.2z" fill="#f6ebd8"/><path d="m65.69 71.925h45.81v19.2h-45.81z" fill="#ecd5af"/><path d="m111.5 35.125v19.2h-82.02a9.6 9.6 0 1 1 0-19.2z" fill="#f6ebd8"/><path d="m65.69 35.125h45.81v19.2h-45.81z" fill="#ecd5af"/><path d="m29.481 71.929h87.519v-8.8h-87.6a18.4 18.4 0 0 0 -18.4 18.396 18.4 18.4 0 0 0 18.4 18.4h87.6v-8.8h-87.519a9.6 9.6 0 1 1 0-19.193z" fill="#00b5bc"/><path d="m54.5 99.926-6.64-7.664-6.641 7.664v-15.329h13.281z" fill="#ffd322"/><path d="m29.481 35.128h87.519v-8.8h-87.6a18.4 18.4 0 0 0 -18.4 18.397 18.4 18.4 0 0 0 18.4 18.4h87.6v-8.8h-87.519a9.6 9.6 0 1 1 0-19.193z" fill="#ff415a"/><path d="m111.5 56.981-6.64-7.664-6.641 7.664v-15.328h13.281z" fill="#ff9e21"/><path d="m65.69 54.321h51.31v8.804h-51.31z" fill="#b30042"/><path d="m65.69 26.324h51.31v8.804h-51.31z" fill="#b30042"/><path d="m65.69 91.122h51.31v8.804h-51.31z" fill="#0b789c"/><path d="m65.69 63.125h51.31v8.804h-51.31z" fill="#0b789c"/><g fill="#500000"><path d="m99.25 98.176h-1.417a1.75 1.75 0 0 0 0 3.5h1.417a1.75 1.75 0 0 0 0-3.5z"/><path d="m43.219 28.074h.781a1.75 1.75 0 0 0 0-3.5h-.78a1.75 1.75 0 0 0 0 3.5z"/><path d="m113.25 36.878h3.75a1.75 1.75 0 0 0 1.75-1.75v-8.8a1.75 1.75 0 0 0 -1.75-1.75h-65.583a1.75 1.75 0 0 0 0 3.5h63.833v5.3h-85.769a11.347 11.347 0 0 0 0 22.693h66.988v.91a1.75 1.75 0 0 0 3.073 1.146l1.781-2.056h7.077l1.781 2.056a1.75 1.75 0 0 0 3.073-1.146v-.91h2v5.3h-27.586a1.75 1.75 0 0 0 0 3.5h27.582v5.3h-85.769a11.347 11.347 0 0 0 0 22.693h9.988v5.3h-10.069a16.65 16.65 0 1 1 0-33.3h51.268a1.75 1.75 0 1 0 0-3.5h-51.268a16.65 16.65 0 1 1 0-33.3h6.433a1.75 1.75 0 0 0 0-3.5h-6.433a20.14 20.14 0 0 0 -8.176 38.551 20.14 20.14 0 0 0 8.176 38.561h60.934a1.75 1.75 0 0 0 0-3.5h-34.084v-5.3h59v5.3h-8.25a1.75 1.75 0 0 0 0 3.5h10a1.75 1.75 0 0 0 1.75-1.75v-8.8a1.75 1.75 0 0 0 -1.75-1.75h-3.75v-15.697h3.75a1.75 1.75 0 0 0 1.75-1.75v-17.608a1.75 1.75 0 0 0 -1.75-1.75h-3.75zm-60.5 58.356-3.568-4.118a1.75 1.75 0 0 0 -2.646 0l-3.567 4.118v-8.886h9.781zm-7.7 2.942 2.808-3.242 2.809 3.242zm64.7-21.476h-68.531a1.75 1.75 0 0 0 0 3.5h68.531v2.645h-47.583a1.75 1.75 0 1 0 0 3.5h47.583v3.024h-53.5v-4.769a1.75 1.75 0 0 0 -1.75-1.75h-13.281a1.75 1.75 0 0 0 -1.75 1.75v4.774h-9.988a7.847 7.847 0 0 1 0-15.693h80.269zm-80.269-24.129a7.847 7.847 0 0 1 0-15.693h80.269v3.022h-11.531a1.75 1.75 0 0 0 -1.75 1.75v4.395h-55.25a1.75 1.75 0 0 0 0 3.5h55.25v3.024zm70.488-.283v-8.888h9.781v8.887l-3.568-4.118a1.75 1.75 0 0 0 -2.646 0zm4.386.283.5-.582.5.582z"/><path d="m41.219 44.069h49.115a1.75 1.75 0 0 0 0-3.5h-49.115a1.75 1.75 0 0 0 0 3.5z"/></g></svg>